<?xml version="1.0" encoding="UTF-8"?> <svg xmlns="http://www.w3.org/2000/svg" width="32" height="32" viewBox="0 0 32 32" fill="none"><path d="M28.3581 25.4461C28.1418 25.2362 28.1177 25.0905 28.3023 24.8311C30.809 21.3198 31.6927 17.4006 30.8472 13.2C29.7804 7.9016 26.6381 4.19518 21.6621 2.08005C19.2748 1.06561 16.7645 0.81465 14.2047 1.12428C13.3719 1.22537 12.5583 1.47916 11.7326 1.64812C11.4017 1.71598 11.3636 1.8708 11.471 2.1663C11.7163 2.83788 11.9319 3.51935 12.1617 4.19659C12.1977 4.30334 12.2444 4.40584 12.2847 4.50693C19.2995 2.41443 24.68 6.34848 26.7958 10.3391C29.1569 14.7913 28.3256 20.007 26.0019 22.9846C25.2229 22.195 24.4424 21.4039 23.662 20.6122C23.6182 20.639 23.5736 20.6666 23.5298 20.6934C23.5298 20.7726 23.5298 20.8518 23.5298 20.9317C23.5298 23.1309 23.5361 25.3302 23.522 27.5294C23.5199 27.8659 23.6111 27.9713 23.9546 27.9691C26.1186 27.955 28.2818 27.9621 30.4457 27.9607C30.5467 27.9607 30.6478 27.9472 30.8239 27.9352C30.6881 27.7868 30.6005 27.6835 30.5057 27.5888C29.7917 26.872 29.0834 26.1502 28.3581 25.4461Z" fill="white"></path><path d="M19.4621 27.5754C16.7786 28.3657 14.1255 28.2406 11.5339 27.1958C6.70704 25.2496 3.45305 20.2827 3.99031 14.78C4.1826 12.8112 4.81106 11.0078 5.86862 9.34585C5.92305 9.26031 5.99516 9.18609 6.08565 9.07368C6.83428 9.83787 7.5603 10.5794 8.30186 11.3366C8.35064 11.2496 8.37044 11.2312 8.37044 11.2121C8.37256 8.89483 8.37185 6.57752 8.37821 4.26021C8.37821 4.02551 8.26016 3.99158 8.06858 3.993C7.38639 3.99794 6.70421 3.993 6.02202 3.993C4.38831 3.993 2.7539 3.993 1.03182 3.993C1.17038 4.13862 1.24814 4.22345 1.32944 4.30475C2.12756 5.10358 2.92073 5.90736 3.72875 6.69558C3.92457 6.88645 3.95073 7.01794 3.78672 7.25335C1.26369 10.8785 0.428813 14.8719 1.38458 19.1757C2.40821 23.787 5.10443 27.1788 9.27884 29.3583C12.3646 30.9686 15.6511 31.3539 19.0606 30.6908C19.641 30.5777 20.2086 30.401 20.8117 30.2455C20.5352 29.4162 20.2631 28.657 20.0333 27.885C19.9336 27.5485 19.805 27.475 19.4621 27.5761V27.5754Z" fill="white"></path><path d="M11.7955 24.2804L16.1007 18.8816C16.1318 18.8823 16.1622 18.8837 16.1933 18.8837C17.8793 18.8837 19.2465 17.5172 19.2465 15.8305C19.2465 14.6994 18.6308 13.7125 17.7167 13.1852L17.7245 7.96451L14.8169 7.9836L14.824 13.1018C13.8258 13.6037 13.1401 14.6365 13.1401 15.8305C13.1401 16.3614 13.2758 16.8605 13.514 17.296L9.80762 22.2133L11.7948 24.2804H11.7955Z" fill="white"></path><path d="M28.3581 25.4461C28.1418 25.2362 28.1177 25.0905 28.3023 24.8311C30.809 21.3198 31.6927 17.4006 30.8472 13.2C29.7804 7.9016 26.6381 4.19518 21.6621 2.08005C19.2748 1.06561 16.7645 0.81465 14.2047 1.12428C13.3719 1.22537 12.5583 1.47916 11.7326 1.64812C11.4017 1.71598 11.3636 1.8708 11.471 2.1663C11.7163 2.83788 11.9319 3.51935 12.1617 4.19659C12.1977 4.30334 12.2444 4.40584 12.2847 4.50693C19.2995 2.41443 24.68 6.34848 26.7958 10.3391C29.1569 14.7913 28.3256 20.007 26.0019 22.9846C25.2229 22.195 24.4424 21.4039 23.662 20.6122C23.6182 20.639 23.5736 20.6666 23.5298 20.6934C23.5298 20.7726 23.5298 20.8518 23.5298 20.9317C23.5298 23.1309 23.5361 25.3302 23.522 27.5294C23.5199 27.8659 23.6111 27.9713 23.9546 27.9691C26.1186 27.955 28.2818 27.9621 30.4457 27.9607C30.5467 27.9607 30.6478 27.9472 30.8239 27.9352C30.6881 27.7868 30.6005 27.6835 30.5057 27.5888C29.7917 26.872 29.0834 26.1502 28.3581 25.4461Z" stroke="white" stroke-width="0.5"></path><path d="M19.4621 27.5754C16.7786 28.3657 14.1255 28.2406 11.5339 27.1958C6.70704 25.2496 3.45305 20.2827 3.99031 14.78C4.1826 12.8112 4.81106 11.0078 5.86862 9.34585C5.92305 9.26031 5.99516 9.18609 6.08565 9.07368C6.83428 9.83787 7.5603 10.5794 8.30186 11.3366C8.35064 11.2496 8.37044 11.2312 8.37044 11.2121C8.37256 8.89483 8.37185 6.57752 8.37821 4.26021C8.37821 4.02551 8.26016 3.99158 8.06858 3.993C7.38639 3.99794 6.70421 3.993 6.02202 3.993C4.38831 3.993 2.7539 3.993 1.03182 3.993C1.17038 4.13862 1.24814 4.22345 1.32944 4.30475C2.12756 5.10358 2.92073 5.90736 3.72875 6.69558C3.92457 6.88645 3.95073 7.01794 3.78672 7.25335C1.26369 10.8785 0.428813 14.8719 1.38458 19.1757C2.40821 23.787 5.10443 27.1788 9.27884 29.3583C12.3646 30.9686 15.6511 31.3539 19.0606 30.6908C19.641 30.5777 20.2086 30.401 20.8117 30.2455C20.5352 29.4162 20.2631 28.657 20.0333 27.885C19.9336 27.5485 19.805 27.475 19.4621 27.5761V27.5754Z" stroke="white" stroke-width="0.5"></path><path d="M11.7955 24.2804L16.1007 18.8816C16.1318 18.8823 16.1622 18.8837 16.1933 18.8837C17.8793 18.8837 19.2465 17.5172 19.2465 15.8305C19.2465 14.6994 18.6308 13.7125 17.7167 13.1852L17.7245 7.96451L14.8169 7.9836L14.824 13.1018C13.8258 13.6037 13.1401 14.6365 13.1401 15.8305C13.1401 16.3614 13.2758 16.8605 13.514 17.296L9.80762 22.2133L11.7948 24.2804H11.7955Z" stroke="white" stroke-width="0.5"></path></svg> 