<?xml version="1.0" encoding="UTF-8"?> <svg xmlns="http://www.w3.org/2000/svg" width="147" height="48" viewBox="0 0 147 48" fill="none"><path d="M62.9912 25.2606C62.9912 32.1669 57.5887 37.2551 50.9588 37.2551C44.3289 37.2551 38.9264 32.1669 38.9264 25.2606C38.9264 18.3542 44.3289 13.2661 50.9588 13.2661C57.5887 13.2661 62.9912 18.3069 62.9912 25.2606ZM57.7245 25.2606C57.7245 20.9449 54.5936 17.9925 50.9588 17.9925C47.324 17.9925 44.193 20.9449 44.193 25.2606C44.193 29.5763 47.324 32.5287 50.9588 32.5287C54.5936 32.5287 57.7245 29.5273 57.7245 25.2606Z" fill="#EA4335"></path><path d="M88.9484 25.2606C88.9484 32.1669 83.5459 37.2551 76.916 37.2551C70.2861 37.2551 64.8836 32.1669 64.8836 25.2606C64.8836 18.3542 70.2861 13.2661 76.916 13.2661C83.5459 13.2661 88.9484 18.3069 88.9484 25.2606ZM83.6818 25.2606C83.6818 20.9449 80.5509 17.9925 76.916 17.9925C73.2812 17.9925 70.1503 20.9449 70.1503 25.2606C70.1503 29.5763 73.2812 32.5287 76.916 32.5287C80.5509 32.5287 83.6818 29.5273 83.6818 25.2606Z" fill="#FBBC05"></path><path d="M113.825 13.9896V35.5237C113.825 44.381 108.601 48 102.426 48C96.613 48 93.114 44.1124 91.795 40.9325L96.3808 39.0243C97.1975 40.9768 99.1989 43.2799 102.421 43.2799C106.374 43.2799 108.824 40.8409 108.824 36.2504V34.5254H108.641C107.462 35.9803 105.191 37.2503 102.325 37.2503C96.3271 37.2503 90.833 32.0263 90.833 25.3048C90.833 18.5833 96.3271 13.2677 102.325 13.2677C105.186 13.2677 107.457 14.5377 108.641 15.95H108.824V13.9975H113.827V13.9928L113.825 13.9896ZM109.197 25.3032C109.197 21.0792 106.379 17.9925 102.794 17.9925C99.21 17.9925 96.1154 21.0808 96.1154 25.3032C96.1154 29.5257 99.1594 32.5287 102.794 32.5287C106.429 32.5287 109.197 29.4846 109.197 25.3032Z" fill="#4285F4"></path><path d="M122.073 1.368V36.5189H116.936V1.368H122.073Z" fill="#34A853"></path><path d="M142.092 29.2082L146.18 31.9331C144.861 33.8856 141.681 37.2487 136.187 37.2487C129.374 37.2487 124.284 31.9821 124.284 25.2543C124.284 18.122 129.417 13.2598 135.598 13.2598C141.779 13.2598 144.867 18.2137 145.863 20.8896L146.409 22.2529L130.375 28.8938C131.603 31.2997 133.513 32.5287 136.189 32.5287C138.865 32.5287 140.73 31.2096 142.092 29.2082ZM129.508 24.8925L140.226 20.4426C139.637 18.945 137.863 17.9009 135.776 17.9009C133.099 17.9009 129.374 20.2641 129.508 24.8925Z" fill="#EA4335"></path><path d="M19.4806 22.1392V17.051H36.628C36.7954 17.9372 36.8823 18.9877 36.8823 20.1219C36.8823 23.94 35.8381 28.66 32.475 32.0248C29.2035 35.4321 25.0237 37.2487 19.4853 37.2487C9.22059 37.2487 0.59082 28.8875 0.59082 18.6244C0.59082 8.36122 9.22217 0 19.4853 0C25.1643 0 29.2082 2.22734 32.2475 5.13237L28.6569 8.72297C26.477 6.67887 23.5246 5.08813 19.4806 5.08813C11.985 5.08813 6.12285 11.1288 6.12285 18.6244C6.12285 26.1199 11.985 32.1606 19.4806 32.1606C24.3428 32.1606 27.1104 30.2081 28.8844 28.4342C30.3235 26.9951 31.2697 24.9415 31.6425 22.1344L19.4806 22.1392Z" fill="#4285F4"></path></svg> 