<?xml version="1.0" encoding="UTF-8"?> <svg xmlns="http://www.w3.org/2000/svg" width="44" height="44" viewBox="0 0 44 44" fill="none"><rect x="-0.00012207" width="44" height="44" rx="10" fill="white"></rect><path d="M15.8756 24.2949L15.1098 27.1537L12.3109 27.2129C11.4744 25.6614 10.9999 23.8863 10.9999 22C10.9999 20.1759 11.4435 18.4558 12.2299 16.9412H12.2305L14.7223 17.398L15.8139 19.8749C15.5854 20.541 15.4609 21.256 15.4609 22C15.461 22.8075 15.6073 23.5811 15.8756 24.2949Z" fill="black"></path><path d="M32.8077 19.9451C32.9341 20.6105 32.9999 21.2977 32.9999 22C32.9999 22.7875 32.9171 23.5557 32.7594 24.2967C32.2239 26.8183 30.8247 29.0201 28.8865 30.5782L28.8859 30.5776L25.7472 30.4174L25.303 27.6445C26.5892 26.8902 27.5943 25.7098 28.1238 24.2967H22.2418V19.9451H32.8077Z" fill="black"></path><path d="M28.8858 30.5776L28.8864 30.5782C27.0013 32.0934 24.6067 33 21.9999 33C17.8109 33 14.1688 30.6586 12.3109 27.2129L15.8756 24.2949C16.8045 26.7741 19.1961 28.539 21.9999 28.539C23.2051 28.539 24.3341 28.2132 25.3029 27.6445L28.8858 30.5776Z" fill="black"></path><path d="M29.0212 13.5324L25.4577 16.4498C24.455 15.8231 23.2698 15.461 21.9999 15.461C19.1327 15.461 16.6963 17.3068 15.8139 19.8749L12.2305 16.9412H12.2299C14.0606 13.4115 17.7486 11 21.9999 11C24.6689 11 27.1161 11.9507 29.0212 13.5324Z" fill="black"></path></svg> 