<?xml version="1.0" encoding="UTF-8"?> <svg xmlns="http://www.w3.org/2000/svg" width="72" height="72" viewBox="0 0 72 72" fill="none"><rect y="-0.0100098" width="72" height="72" rx="36" fill="white"></rect><path d="M58.54 36.5127C58.54 34.8818 58.3936 33.3136 58.1218 31.8082H36.46V40.7154H48.8381C48.2945 43.58 46.6636 46.0054 44.2172 47.6363V53.4282H51.6818C56.0309 49.4136 58.54 43.5172 58.54 36.5127Z" fill="#4285F4"></path><path d="M36.4599 58.99C42.6699 58.99 47.8763 56.9409 51.6818 53.4282L44.2172 47.6363C42.1681 49.0163 39.5544 49.8527 36.4599 49.8527C30.4799 49.8527 25.399 45.8173 23.5799 40.3809H15.9272V46.3191C19.7117 53.8254 27.469 58.99 36.4599 58.99Z" fill="#34A853"></path><path d="M23.58 40.36C23.12 38.98 22.8481 37.5164 22.8481 35.99C22.8481 34.4636 23.12 33 23.58 31.62V25.6818H15.9272C14.3591 28.7764 13.46 32.2682 13.46 35.99C13.46 39.7118 14.3591 43.2036 15.9272 46.2982L21.8863 41.6564L23.58 40.36Z" fill="#FBBC05"></path><path d="M36.4599 22.1482C39.8472 22.1482 42.8581 23.3191 45.2626 25.5773L51.849 18.9909C47.8554 15.2691 42.6699 12.99 36.4599 12.99C27.469 12.99 19.7118 18.1546 15.9272 25.6818L23.58 31.62C25.3991 26.1836 30.4799 22.1482 36.4599 22.1482Z" fill="#EA4335"></path></svg> 