<?xml version="1.0" encoding="UTF-8" standalone="no"?> <svg xmlns:inkscape="http://www.inkscape.org/namespaces/inkscape" xmlns:sodipodi="http://sodipodi.sourceforge.net/DTD/sodipodi-0.dtd" xmlns="http://www.w3.org/2000/svg" xmlns:svg="http://www.w3.org/2000/svg" height="440pt" viewBox="0 -31 450.00023 440" width="450pt" version="1.1" id="svg3" sodipodi:docname="shopping-cart.svg" inkscape:version="1.3 (0e150ed, 2023-07-21)"><defs id="defs3"></defs><g id="g3" transform="matrix(0.87890772,0,0,1,0,-31)"><path d="m 164.96094,300.00391 h 0.0234 c 0.0195,0 0.0391,-0.004 0.0586,-0.004 H 437 c 6.69531,0 12.58203,-4.44141 14.42187,-10.87891 l 60,-209.999996 C 512.71484,74.59375 511.80859,69.726562 508.97656,65.96875 506.14062,62.210938 501.70703,60 497,60 H 130.36719 L 119.64453,11.746094 C 118.11719,4.882812 112.03125,0 105,0 H 15 C 6.714844,0 0,6.714844 0,15 0,23.285156 6.714844,30 15,30 h 77.96875 c 1.898438,8.550781 51.3125,230.91797 54.15625,243.71094 C 131.18359,280.64062 120,296.53516 120,315 c 0,24.8125 20.1875,45 45,45 h 272 c 8.28516,0 15,-6.71484 15,-15 0,-8.28516 -6.71484,-15 -15,-15 H 165 c -8.26953,0 -15,-6.73047 -15,-15 0,-8.25781 6.70703,-14.97656 14.96094,-14.99609 z M 477.11328,90 425.68359,270 H 177.03125 l -40,-180 z m 0,0" id="path1"></path><path d="m 150,399.99999 c 0,22.05559 20.41679,39.99998 45.51098,39.99998 25.0943,0 45.51109,-17.94439 45.51109,-39.99998 C 241.02207,377.94439 220.60528,360 195.51098,360 170.41679,360 150,377.94439 150,399.99999 Z m 45.51098,-13.3333 c 8.3635,0 15.1704,5.9826 15.1704,13.3333 0,7.35069 -6.8069,13.33329 -15.1704,13.33329 -8.36339,0 -15.17029,-5.9826 -15.17029,-13.33329 0,-7.3507 6.8069,-13.3333 15.17029,-13.3333 z m 0,0" id="path2" style="stroke-width:0.948151"></path><path d="m 362,400 c 0,22.05555 20.41676,40 45.51103,40 25.09428,0 45.51104,-17.94445 45.51104,-40 0,-22.05556 -20.41676,-40 -45.51104,-40 C 382.41676,360 362,377.94444 362,400 Z m 45.51103,-13.33333 c 8.36345,0 15.17035,5.98264 15.17035,13.33333 0,7.35069 -6.8069,13.33333 -15.17035,13.33333 -8.36344,0 -15.17034,-5.98264 -15.17034,-13.33333 0,-7.35069 6.8069,-13.33333 15.17034,-13.33333 z m 0,0" id="path3" style="stroke-width:0.948151"></path></g></svg> 